# xmcd
#
# Track frame offsets: 
#        150
#        18870
#        36654
#        55654
#        75208
#        88316
#        103658
#        119509
#        133521
#        151065
#        166081
#
# Disc length: 2412 seconds
#
# Revision: 1
# Processed by: cddbd v1.5.2PL0 Copyright (c) Steve Scherf et al.
# Submitted via: ExactAudioCopy v1.3
#
DISCID=7e096a0b
DTITLE=George Strait - Somewhere Down In Texas
DYEAR=2005
DGENRE=Country
TTITLE0=If The Whole World Was A Honky Tonk
TTITLE1=Somewhere Down In Texas
TTITLE2=The Seashores Of Old Mexico
TTITLE3=You'll Be There
TTITLE4=High Tone Woman
TTITLE5=Good News, Bad News (Duet With Lee Ann Womack)
TTITLE6=Oh, What A Perfect Day
TTITLE7=Texas
TTITLE8=Ready For The End Of The World
TTITLE9=She Let Herself Go
TTITLE10=By The Light Of A Burning Bridge
EXTD=
EXTT0=
EXTT1=
EXTT2=
EXTT3=
EXTT4=
EXTT5=
EXTT6=
EXTT7=
EXTT8=
EXTT9=
EXTT10=
PLAYORDER=
